<?xml version="1.0" encoding="UTF-8"?>
<svg width="224px" height="299px" viewBox="0 0 224 299" version="1.1" xmlns="http://www.w3.org/2000/svg" xmlns:xlink="http://www.w3.org/1999/xlink">
    <!-- Generator: Sketch 63.1 (92452) - https://sketch.com -->
    <title>Mask</title>
    <desc>Created with Sketch.</desc>
    <defs>
        <path d="M162.778343,267.7 L162.778343,237.2 L193.278343,237.2 L223.778343,237.2 L193.395644,267.7 C176.685167,284.475 162.960173,298.2 162.895654,298.2 C162.831079,298.2 162.778343,284.475 162.778343,267.7 L162.778343,267.7 Z M30.1456832,267.5 L58,236 L111.5,236 L163.5,236 L163.53126,267.5 L163.53126,298 L82.0312596,298 L0.531259557,298 L30.1456832,267.5 Z M57.9183369,143.496296 L57.9183369,50.0444444 L110.724798,50.0444444 L163.53126,50.0444444 L163.53126,143.496296 L163.53126,236.948148 L110.724798,236.948148 L57.9183369,236.948148 L57.9183369,143.496296 Z M0.671253441,174.232831 L0.671253441,50.0444444 L29.6712534,50.0444444 L58.6712534,50.0444444 L58.6712534,143.835335 L58.6712534,237.626208 L29.6712534,268.023704 L0.671253441,298.4212 L0.671253441,174.232831 Z M1.2019561,49.6123676 C1.68944737,49.1502282 14.8798273,37.7983908 30.5139087,24.3860585 L58.9395144,3.97903932e-13 L58.9395144,25.2263091 L58.9395144,50.4526182 L29.6275619,50.4526182 C1.00188477,50.4526182 0.336357977,50.4329461 1.2019561,49.6123676 L1.2019561,49.6123676 Z M58,25.8962963 L58,3.90798505e-14 L141.241965,3.90798505e-14 C223.18411,3.90798505e-14 224.470071,0.0135111111 223.597573,0.860144356 C223.110082,1.3332242 209.582532,12.9865575 193.536379,26.7564407 L164.361523,51.7925926 L111.18077,51.7925926 L58,51.7925926 L58,25.8962963 Z M160.013878,144.933333 L160.027352,51.3688889 L188.284362,28.7734363 C203.825699,16.3459361 218.219558,4.82949736 220.270677,3.18134898 L224,0.184712439 L224,119.341244 L224,237 L192,238.497778 L160,238.497778 L160.013878,144.933333 Z" id="path-1"></path>
    </defs>
    <g id="Page-1" stroke="none" stroke-width="1" fill="none" fill-rule="evenodd">
        <g id="Desktop" transform="translate(-714.000000, -168.000000)">
            <g id="noun_Three-Dimensional-Parallelepiped_1819632" transform="translate(714.000000, 168.000000)">
                <g id="me-italy">
                    <mask id="mask-2" fill="white">
                        <use xlink:href="#path-1"></use>
                    </mask>
                    <use id="Mask" fill="#000000" fill-rule="nonzero" transform="translate(112.265630, 149.210600) rotate(-360.000000) translate(-112.265630, -149.210600) " xlink:href="#path-1"></use>
                </g>
            </g>
        </g>
    </g>
</svg>