<?xml version="1.0" encoding="UTF-8"?>
<svg width="338px" height="381px" viewBox="0 0 338 381" version="1.1" xmlns="http://www.w3.org/2000/svg" xmlns:xlink="http://www.w3.org/1999/xlink">
    <!-- Generator: Sketch 63.1 (92452) - https://sketch.com -->
    <title>noun_shapes_2460537</title>
    <desc>Created with Sketch.</desc>
    <g id="Page-1" stroke="none" stroke-width="1" fill="none" fill-rule="evenodd">
        <g id="noun_shapes_2460537" transform="translate(-2.000000, -10.000000)" fill="#000000" fill-rule="nonzero">
            <g id="Group" transform="translate(0.519033, 0.662911)">
                <path d="M235.924874,9.92818318 L184.955603,110.846274 L183.976415,112.787348 L213.612507,112.787348 C214.669865,112.786806 215.684071,113.2066 216.431736,113.954264 C217.1794,114.701929 217.599194,115.716135 217.598652,116.773492 L217.598652,175.023453 C246.418385,178.266533 271.731318,192.362234 289.575887,213.013041 L338.544188,213.013041 L286.913843,110.848226 L235.926826,9.92818318 L235.924874,9.92818318 Z M2.01549778,120.753515 L2.01549778,328.370768 L107.987035,328.370768 L209.632752,328.370768 L209.632752,178.621916 L209.632752,120.753515 L2.01549778,120.753515 Z M217.5967,183.759661 L217.5967,332.346088 C217.593036,334.541252 215.814416,336.319873 213.619251,336.323536 L115.394262,336.323536 C133.657659,368.779178 167.463844,389.599912 205.065216,389.653153 C262.405646,389.653153 308.818384,343.240414 308.818384,285.899985 C308.774017,233.337925 269.283924,190.155133 217.59457,183.761791 L217.5967,183.759661 Z" id="Shape"></path>
            </g>
        </g>
    </g>
</svg>